<svg xmlns="http://www.w3.org/2000/svg" width="720" height="500" viewBox="0 0 720 500" font-family="Segoe UI, Arial, sans-serif">
<rect width="720" height="500" fill="white"/>
<text x="320.0" y="26" text-anchor="middle" font-size="17" font-weight="600">Hypervolume fraction of global front</text>
<line x1="70" y1="430.2" x2="570" y2="430.2" stroke="#e6e6e6" stroke-width="1"/>
<text x="62" y="434.2" text-anchor="end" font-size="12" fill="#444">0.8</text>
<line x1="70" y1="339.0" x2="570" y2="339.0" stroke="#e6e6e6" stroke-width="1"/>
<text x="62" y="343.0" text-anchor="end" font-size="12" fill="#444">0.85</text>
<line x1="70" y1="247.8" x2="570" y2="247.8" stroke="#e6e6e6" stroke-width="1"/>
<text x="62" y="251.8" text-anchor="end" font-size="12" fill="#444">0.9</text>
<line x1="70" y1="156.6" x2="570" y2="156.6" stroke="#e6e6e6" stroke-width="1"/>
<text x="62" y="160.6" text-anchor="end" font-size="12" fill="#444">0.95</text>
<line x1="70" y1="65.4" x2="570" y2="65.4" stroke="#e6e6e6" stroke-width="1"/>
<text x="62" y="69.4" text-anchor="end" font-size="12" fill="#444">1</text>
<line x1="140.2" y1="50" x2="140.2" y2="440" stroke="#f0f0f0" stroke-width="1"/>
<text x="140.2" y="460" text-anchor="middle" font-size="12" fill="#444">250</text>
<line x1="260.4" y1="50" x2="260.4" y2="440" stroke="#f0f0f0" stroke-width="1"/>
<text x="260.4" y="460" text-anchor="middle" font-size="12" fill="#444">500</text>
<line x1="380.6" y1="50" x2="380.6" y2="440" stroke="#f0f0f0" stroke-width="1"/>
<text x="380.6" y="460" text-anchor="middle" font-size="12" fill="#444">750</text>
<line x1="500.8" y1="50" x2="500.8" y2="440" stroke="#f0f0f0" stroke-width="1"/>
<text x="500.8" y="460" text-anchor="middle" font-size="12" fill="#444">1000</text>
<line x1="70" y1="50" x2="70" y2="440" stroke="#333" stroke-width="1.5"/>
<line x1="70" y1="440" x2="570" y2="440" stroke="#333" stroke-width="1.5"/>
<text x="320.0" y="482" text-anchor="middle" font-size="13">Molecules evaluated (labeling budget)</text>
<text x="20" y="245.0" text-anchor="middle" font-size="13" transform="rotate(-90 20 245.0)">Hypervolume fraction of global front</text>
<polygon points="70.0,382.3 120.0,132.2 170.0,115.7 220.0,93.3 270.0,90.3 320.0,88.6 370.0,85.6 420.0,83.6 470.0,83.8 520.0,70.9 570.0,69.3 570.0,74.1 520.0,74.8 470.0,88.6 420.0,97.2 370.0,99.2 320.0,99.2 270.0,99.4 220.0,103.9 170.0,149.2 120.0,216.1 70.0,422.3" fill="#1f77b4" fill-opacity="0.12" stroke="none"/>
<polyline points="70.0,402.3 120.0,174.2 170.0,132.5 220.0,98.6 270.0,94.8 320.0,93.9 370.0,92.4 420.0,90.4 470.0,86.2 520.0,72.9 570.0,71.7" fill="none" stroke="#1f77b4" stroke-width="2.2"/>
<circle cx="70.0" cy="402.3" r="3" fill="#1f77b4"/>
<circle cx="120.0" cy="174.2" r="3" fill="#1f77b4"/>
<circle cx="170.0" cy="132.5" r="3" fill="#1f77b4"/>
<circle cx="220.0" cy="98.6" r="3" fill="#1f77b4"/>
<circle cx="270.0" cy="94.8" r="3" fill="#1f77b4"/>
<circle cx="320.0" cy="93.9" r="3" fill="#1f77b4"/>
<circle cx="370.0" cy="92.4" r="3" fill="#1f77b4"/>
<circle cx="420.0" cy="90.4" r="3" fill="#1f77b4"/>
<circle cx="470.0" cy="86.2" r="3" fill="#1f77b4"/>
<circle cx="520.0" cy="72.9" r="3" fill="#1f77b4"/>
<circle cx="570.0" cy="71.7" r="3" fill="#1f77b4"/>
<polygon points="70.0,382.3 120.0,153.5 170.0,135.5 220.0,90.6 270.0,87.7 320.0,78.3 370.0,73.6 420.0,72.8 470.0,70.5 520.0,69.2 570.0,69.1 570.0,69.8 520.0,70.0 470.0,79.4 420.0,79.9 370.0,82.2 320.0,86.8 270.0,98.1 220.0,107.7 170.0,153.9 120.0,259.3 70.0,422.3" fill="#ff7f0e" fill-opacity="0.12" stroke="none"/>
<polyline points="70.0,402.3 120.0,206.4 170.0,144.7 220.0,99.1 270.0,92.9 320.0,82.6 370.0,77.9 420.0,76.3 470.0,74.9 520.0,69.6 570.0,69.5" fill="none" stroke="#ff7f0e" stroke-width="2.2"/>
<circle cx="70.0" cy="402.3" r="3" fill="#ff7f0e"/>
<circle cx="120.0" cy="206.4" r="3" fill="#ff7f0e"/>
<circle cx="170.0" cy="144.7" r="3" fill="#ff7f0e"/>
<circle cx="220.0" cy="99.1" r="3" fill="#ff7f0e"/>
<circle cx="270.0" cy="92.9" r="3" fill="#ff7f0e"/>
<circle cx="320.0" cy="82.6" r="3" fill="#ff7f0e"/>
<circle cx="370.0" cy="77.9" r="3" fill="#ff7f0e"/>
<circle cx="420.0" cy="76.3" r="3" fill="#ff7f0e"/>
<circle cx="470.0" cy="74.9" r="3" fill="#ff7f0e"/>
<circle cx="520.0" cy="69.6" r="3" fill="#ff7f0e"/>
<circle cx="570.0" cy="69.5" r="3" fill="#ff7f0e"/>
<polygon points="70.0,382.3 120.0,274.8 170.0,267.4 220.0,240.2 270.0,229.8 320.0,198.0 370.0,188.1 420.0,183.4 470.0,176.9 520.0,147.5 570.0,138.4 570.0,203.4 520.0,221.7 470.0,241.8 420.0,243.0 370.0,248.7 320.0,299.2 270.0,307.0 220.0,318.5 170.0,323.5 120.0,366.5 70.0,422.3" fill="#2ca02c" fill-opacity="0.12" stroke="none"/>
<polyline points="70.0,402.3 120.0,320.7 170.0,295.4 220.0,279.3 270.0,268.4 320.0,248.6 370.0,218.4 420.0,213.2 470.0,209.3 520.0,184.6 570.0,170.9" fill="none" stroke="#2ca02c" stroke-width="2.2"/>
<circle cx="70.0" cy="402.3" r="3" fill="#2ca02c"/>
<circle cx="120.0" cy="320.7" r="3" fill="#2ca02c"/>
<circle cx="170.0" cy="295.4" r="3" fill="#2ca02c"/>
<circle cx="220.0" cy="279.3" r="3" fill="#2ca02c"/>
<circle cx="270.0" cy="268.4" r="3" fill="#2ca02c"/>
<circle cx="320.0" cy="248.6" r="3" fill="#2ca02c"/>
<circle cx="370.0" cy="218.4" r="3" fill="#2ca02c"/>
<circle cx="420.0" cy="213.2" r="3" fill="#2ca02c"/>
<circle cx="470.0" cy="209.3" r="3" fill="#2ca02c"/>
<circle cx="520.0" cy="184.6" r="3" fill="#2ca02c"/>
<circle cx="570.0" cy="170.9" r="3" fill="#2ca02c"/>
<polygon points="70.0,382.3 120.0,160.5 170.0,120.1 220.0,85.3 270.0,81.0 320.0,73.8 370.0,73.8 420.0,71.9 470.0,71.9 520.0,69.5 570.0,68.7 570.0,70.8 520.0,73.7 470.0,73.9 420.0,74.0 370.0,75.3 320.0,93.8 270.0,96.6 220.0,106.8 170.0,154.6 120.0,255.6 70.0,422.3" fill="#d62728" fill-opacity="0.12" stroke="none"/>
<polyline points="70.0,402.3 120.0,208.0 170.0,137.3 220.0,96.1 270.0,88.8 320.0,83.8 370.0,74.6 420.0,72.9 470.0,72.9 520.0,71.6 570.0,69.7" fill="none" stroke="#d62728" stroke-width="2.2"/>
<circle cx="70.0" cy="402.3" r="3" fill="#d62728"/>
<circle cx="120.0" cy="208.0" r="3" fill="#d62728"/>
<circle cx="170.0" cy="137.3" r="3" fill="#d62728"/>
<circle cx="220.0" cy="96.1" r="3" fill="#d62728"/>
<circle cx="270.0" cy="88.8" r="3" fill="#d62728"/>
<circle cx="320.0" cy="83.8" r="3" fill="#d62728"/>
<circle cx="370.0" cy="74.6" r="3" fill="#d62728"/>
<circle cx="420.0" cy="72.9" r="3" fill="#d62728"/>
<circle cx="470.0" cy="72.9" r="3" fill="#d62728"/>
<circle cx="520.0" cy="71.6" r="3" fill="#d62728"/>
<circle cx="570.0" cy="69.7" r="3" fill="#d62728"/>
<polygon points="70.0,382.3 120.0,140.2 170.0,118.3 220.0,96.9 270.0,90.5 320.0,88.5 370.0,74.3 420.0,69.8 470.0,68.1 520.0,67.8 570.0,67.7 570.0,70.4 520.0,71.0 470.0,71.4 420.0,81.7 370.0,91.5 320.0,95.6 270.0,100.7 220.0,123.8 170.0,156.2 120.0,285.3 70.0,422.3" fill="#9467bd" fill-opacity="0.12" stroke="none"/>
<polyline points="70.0,402.3 120.0,212.7 170.0,137.3 220.0,110.4 270.0,95.6 320.0,92.1 370.0,82.9 420.0,75.8 470.0,69.7 520.0,69.4 570.0,69.1" fill="none" stroke="#9467bd" stroke-width="2.2"/>
<circle cx="70.0" cy="402.3" r="3" fill="#9467bd"/>
<circle cx="120.0" cy="212.7" r="3" fill="#9467bd"/>
<circle cx="170.0" cy="137.3" r="3" fill="#9467bd"/>
<circle cx="220.0" cy="110.4" r="3" fill="#9467bd"/>
<circle cx="270.0" cy="95.6" r="3" fill="#9467bd"/>
<circle cx="320.0" cy="92.1" r="3" fill="#9467bd"/>
<circle cx="370.0" cy="82.9" r="3" fill="#9467bd"/>
<circle cx="420.0" cy="75.8" r="3" fill="#9467bd"/>
<circle cx="470.0" cy="69.7" r="3" fill="#9467bd"/>
<circle cx="520.0" cy="69.4" r="3" fill="#9467bd"/>
<circle cx="570.0" cy="69.1" r="3" fill="#9467bd"/>
<line x1="590" y1="60" x2="614" y2="60" stroke="#1f77b4" stroke-width="3"/>
<text x="620" y="64" font-size="13" fill="#222">greedy</text>
<line x1="590" y1="82" x2="614" y2="82" stroke="#ff7f0e" stroke-width="3"/>
<text x="620" y="86" font-size="13" fill="#222">pareto</text>
<line x1="590" y1="104" x2="614" y2="104" stroke="#2ca02c" stroke-width="3"/>
<text x="620" y="108" font-size="13" fill="#222">random</text>
<line x1="590" y1="126" x2="614" y2="126" stroke="#d62728" stroke-width="3"/>
<text x="620" y="130" font-size="13" fill="#222">ucb</text>
<line x1="590" y1="148" x2="614" y2="148" stroke="#9467bd" stroke-width="3"/>
<text x="620" y="152" font-size="13" fill="#222">weighted</text>
</svg>